<svg xmlns="http://www.w3.org/2000/svg" width="29.943" height="29.943" viewBox="0 0 29.943 29.943">
  <g id="Apply" transform="translate(-596.305 -2288.381)">
    <path id="Path_16" data-name="Path 16" d="M622.243,2292.385c-16.025-12.205-34.139,5.91-21.934,21.935C616.334,2326.525,634.449,2308.41,622.243,2292.385Zm-1,20.938c-14.569,11.1-31.039-5.372-19.942-19.942C615.875,2282.285,632.344,2298.754,621.247,2313.323Z" fill="#333"/>
    <path id="Path_17" data-name="Path 17" d="M604.435,2299.92h3.047v9.794h-3.047Zm1.524-4.87a1.765,1.765,0,1,1-1.766,1.764,1.765,1.765,0,0,1,1.766-1.764m3.434,14.664h3.04v-4.845c0-1.278.242-2.515,1.826-2.515,1.56,0,1.583,1.462,1.583,2.6v4.762h3.04v-5.372c0-2.638-.569-4.666-3.649-4.666a3.2,3.2,0,0,0-2.881,1.582h-.041v-1.338h-2.918Z" fill="#333"/>
  </g>
</svg>
