<svg xmlns="http://www.w3.org/2000/svg" width="204.722" height="108.549" viewBox="0 0 204.722 108.549">
  <g id="consul1" transform="translate(-649.889 -1445.423)">
    <path id="Path_30" data-name="Path 30" d="M652.389,1551.472a99.861,99.861,0,1,1,199.722,0" fill="none" stroke="#c8ec48" stroke-linecap="round" stroke-miterlimit="10" stroke-width="5" stroke-dasharray="12"/>
    <g id="Group_44" data-name="Group 44">
      <path id="Path_31" data-name="Path 31" d="M714.717,1485.99c.632-6.194,4.143-10.66,10.182-12.892a24.126,24.126,0,0,1,8.209-1.433,24.434,24.434,0,0,1,8.246,1.42c6.053,2.245,9.564,6.711,10.183,12.905a12.684,12.684,0,0,1,.039,1.859v.594a37.327,37.327,0,0,1-3.859,15.861,23.1,23.1,0,0,1-5.446,7.008,13.046,13.046,0,0,1-8.776,3.433l-.465-.013a.048.048,0,0,1-.039.013,13.193,13.193,0,0,1-9-3.433,22.961,22.961,0,0,1-5.433-6.995,37.24,37.24,0,0,1-3.872-15.849v-.619A14.787,14.787,0,0,1,714.717,1485.99Z" fill="#343433"/>
      <path id="Path_32" data-name="Path 32" d="M771.606,1545.177a12.034,12.034,0,0,1-.839,3.574,8.047,8.047,0,0,1-7.318,5.15H702.83a8.073,8.073,0,0,1-7.356-5.188,11.991,11.991,0,0,1-.787-3.2l-.026-9.976c-.026-.194-.271-4.336,4.117-7.692a16.743,16.743,0,0,1,4.775-2.439l12.738-4.8,3.937-.981,1.045.181a6.564,6.564,0,0,1,3.071,2.116c.207.258.375.491.543.723q3.619,5.13,7.278,10.234l.968,1.355,7.06-9.911c.142-.207.271-.413.4-.62a9.941,9.941,0,0,1,1.587-2.052l.517-.413c2.452-1.768,5.11-1.484,7.73-.49.013,0,12.39,4.7,12.39,4.7a16.62,16.62,0,0,1,4.672,2.4c4.388,3.356,4.142,7.5,4.1,7.95Z" fill="#343433"/>
      <path id="Path_33" data-name="Path 33" d="M799.966,1445.423H746.757a9.9,9.9,0,0,0-9.883,9.883v9.712a31.567,31.567,0,0,1,5.693,1.171v-6.077h61.589v27.912a4.194,4.194,0,0,1-4.19,4.189h-8.037a2.855,2.855,0,0,0-2,.816l-15.145,14.917V1495.06a2.849,2.849,0,0,0-2.846-2.847H757.1a47.186,47.186,0,0,1-1.092,5.694h13.086v16.838a2.842,2.842,0,0,0,1.746,2.624,2.8,2.8,0,0,0,1.1.223,2.861,2.861,0,0,0,2-.816l19.158-18.869h6.87a9.9,9.9,0,0,0,9.883-9.883v-32.718A9.9,9.9,0,0,0,799.966,1445.423Zm-54.025,10.784a3.376,3.376,0,0,1,0-6.752,3.534,3.534,0,0,1,3.378,3.379A3.44,3.44,0,0,1,745.941,1456.207Zm13.887,0a3.281,3.281,0,0,1-3.246-3.506,3.416,3.416,0,0,1,3.246-3.374,3.271,3.271,0,0,1,3.373,3.374A3.461,3.461,0,0,1,759.828,1456.207Zm13.759,0a3.376,3.376,0,1,1,0-6.752,3.529,3.529,0,0,1,3.373,3.379A3.435,3.435,0,0,1,773.587,1456.207Z" fill="#343433"/>
    </g>
  </g>
</svg>
