<svg xmlns="http://www.w3.org/2000/svg" width="12.183" height="9.377" viewBox="0 0 12.183 9.377">
  <g id="email-icon" transform="translate(-547.441 -4986.088)">
    <path id="Path_8" data-name="Path 8" d="M559.5,4986.952a.729.729,0,0,1-.047.066l-4.16,4.72a2.351,2.351,0,0,1-3.529,0l-4.211-4.778a1.42,1.42,0,0,0-.116.565v5.411a2.529,2.529,0,0,0,2.528,2.529h7.126a2.529,2.529,0,0,0,2.529-2.529v-5.411A1.422,1.422,0,0,0,559.5,4986.952Z" fill="#fff"/>
    <path id="Path_9" data-name="Path 9" d="M552.713,4990.9a1.086,1.086,0,0,0,1.632,0l4.16-4.72a.364.364,0,0,1,.048-.044,1.41,1.41,0,0,0-.371-.05h-9.307a1.39,1.39,0,0,0-.363.048Z" fill="#fff"/>
  </g>
</svg>
