<svg xmlns="http://www.w3.org/2000/svg" width="20.651" height="20.651" viewBox="0 0 20.651 20.651">
  <g id="INSTA" transform="translate(-1655.69 -5147.734)">
    <path id="Path_2" data-name="Path 2" d="M1671.483,5151.421a1.211,1.211,0,1,0,1.21,1.211A1.211,1.211,0,0,0,1671.483,5151.421Z" fill="#fff"/>
    <path id="Path_3" data-name="Path 3" d="M1666.1,5152.974a5.085,5.085,0,1,0,5.086,5.085A5.09,5.09,0,0,0,1666.1,5152.974Zm0,8.343a3.258,3.258,0,1,1,3.258-3.258A3.261,3.261,0,0,1,1666.1,5161.317Z" fill="#fff"/>
    <path id="Path_4" data-name="Path 4" d="M1670.138,5168.385h-8.245a6.21,6.21,0,0,1-6.2-6.2v-8.245a6.21,6.21,0,0,1,6.2-6.2h8.245a6.21,6.21,0,0,1,6.2,6.2v8.245A6.21,6.21,0,0,1,1670.138,5168.385Zm-8.245-18.708a4.265,4.265,0,0,0-4.26,4.26v8.245a4.265,4.265,0,0,0,4.26,4.26h8.245a4.265,4.265,0,0,0,4.26-4.26v-8.245a4.265,4.265,0,0,0-4.26-4.26Z" fill="#fff"/>
  </g>
</svg>
