<svg xmlns="http://www.w3.org/2000/svg" width="22.516" height="22.517" viewBox="0 0 22.516 22.517">
  <g id="likedIN" transform="translate(-1613.409 -5146.801)">
    <path id="Path_5" data-name="Path 5" d="M1624.667,5146.8a11.259,11.259,0,1,0,11.258,11.258A11.258,11.258,0,0,0,1624.667,5146.8Zm0,21.494a10.236,10.236,0,1,1,10.236-10.236A10.236,10.236,0,0,1,1624.667,5168.295Z" fill="#fff"/>
    <path id="Path_6" data-name="Path 6" d="M1619.522,5155.478h2.292v7.365h-2.292Zm1.147-3.662a1.328,1.328,0,1,1-1.328,1.327,1.328,1.328,0,0,1,1.328-1.327m2.582,11.027h2.286V5159.2c0-.961.182-1.892,1.373-1.892,1.174,0,1.19,1.1,1.19,1.954v3.581h2.287v-4.04c0-1.984-.428-3.509-2.744-3.509a2.408,2.408,0,0,0-2.167,1.19h-.031v-1.006h-2.194Z" fill="#fff"/>
  </g>
</svg>
