<svg xmlns="http://www.w3.org/2000/svg" width="317.695" height="44.997" viewBox="0 0 317.695 44.997">
  <path id="logo-footer" d="M255.526,4919.918c3.642,0,5.364,2.611,6.259,6.813l9.7-1.791c-1.242-7.5-6.952-12.311-15.62-12.311-13.216,0-19.059,9.9-19.059,22.289,0,13.006,5.575,22.708,19.4,22.708,5.571,0,11.006-1.789,14.034-3.86l.549-7.5a25.6,25.6,0,0,1-12.587,4c-8.05,0-11.219-6.27-11.219-15.9C246.991,4925.833,249.811,4919.918,255.526,4919.918Zm-68.81-6.539H172.17l-24.9,43.558H156.7l20.9-36.57v17.643h-1.421c-4.952,0-7.444,5.118-7.85,6.7H177.6v12.224h9.113v-12.224h7.356v-6.7h-7.356Zm116.064,27.46c0,2.818-.277,5.294-1.714,7.084-1.175,1.378-3.038,2.275-5.859,2.275-2.74,0-4.741-.9-5.915-2.416s-1.583-3.578-1.583-7.021v-27.382h-9.63v27.8c0,5.574.893,8.946,3.505,11.837,2.822,3.094,7.367,4.612,13.422,4.612,6.668,0,11.284-1.86,14.041-5.365,2.267-2.9,3.088-6.54,3.088-11.422v-27.46H302.78Zm-86.119-20.921c3.649,0,5.367,2.611,6.262,6.813l9.705-1.791c-1.242-7.5-6.945-12.311-15.623-12.311-13.206,0-19.059,9.9-19.059,22.289,0,13.006,5.578,22.708,19.4,22.708,5.573,0,11.01-1.789,14.036-3.86l.559-7.5a25.654,25.654,0,0,1-12.6,4c-8.056,0-11.209-6.27-11.209-15.9C208.137,4925.833,210.954,4919.918,216.661,4919.918Zm167.469,18.234h13.332v-6.671H384.13v-11.358h17.228v-6.744H374.574v43.558h22.818c3.548,0,5.453-2.023,5.974-6.814H384.13Zm74.979,6.961a5.851,5.851,0,1,0,5.853,5.849A5.85,5.85,0,0,0,459.109,4945.113Zm-104.276-27.807c-.647,1.448-9.568,22.217-9.568,22.217a24.424,24.424,0,0,0-1.641,5.391h-.073a26.084,26.084,0,0,0-1.826-5.391s-9.369-20.443-10.184-22.241-2.075-3.583-3.995-3.583h-6.462v43.238h7.991V4928.6a25.111,25.111,0,0,0,1.778,5.869l10.181,22.473h4.572l9.773-22.538a31.156,31.156,0,0,0,1.842-5.744v28.282h8.055V4913.7h-6.558C356.649,4913.7,355.49,4915.857,354.833,4917.306Zm86.127-.416c-3.849-2.549-9.091-3.511-16.1-3.511H406.676l-.016,6.744h18.38v.006c3.895.022,6.871.637,8.893,2.13,2.961,2.2,4.133,6.188,4.133,12.59s-.955,10.946-4.326,13.353a14.074,14.074,0,0,1-7.991,2h-4.4v-18.125c0-8.332-9.571-9.063-9.571-9.063v33.927h13.352a33.343,33.343,0,0,0,12.382-2c6.883-2.816,10.732-8.88,10.732-19.611C448.248,4926.041,445.918,4920.192,440.96,4916.89Z" transform="translate(-147.267 -4912.629)" fill="#b7e438"/>
</svg>
