<svg xmlns="http://www.w3.org/2000/svg" width="317.695" height="44.997" viewBox="0 0 317.695 44.997">
  <path id="logoMain" d="M276,74.843c3.642,0,5.364,2.611,6.259,6.813l9.706-1.791c-1.243-7.5-6.953-12.311-15.621-12.311-13.216,0-19.059,9.9-19.059,22.289,0,13.006,5.575,22.708,19.4,22.708,5.571,0,11.006-1.789,14.034-3.86l.549-7.5a25.6,25.6,0,0,1-12.587,4c-8.05,0-11.219-6.269-11.219-15.9C267.463,80.759,270.283,74.843,276,74.843Zm-68.81-6.538H192.642l-24.9,43.557h9.432l20.9-36.569V92.935h-1.421c-4.952,0-7.444,5.118-7.85,6.7h9.271v12.224h9.113V99.638h7.356v-6.7h-7.356ZM323.252,95.764c0,2.818-.277,5.294-1.713,7.084-1.176,1.378-3.039,2.275-5.86,2.275-2.74,0-4.741-.9-5.915-2.416s-1.583-3.578-1.583-7.021V68.305h-9.63V96.1c0,5.574.894,8.947,3.505,11.837,2.822,3.094,7.367,4.612,13.422,4.612,6.668,0,11.284-1.86,14.041-5.365,2.267-2.9,3.088-6.54,3.088-11.422V68.305h-9.355ZM237.133,74.843c3.649,0,5.367,2.611,6.262,6.813l9.705-1.791c-1.242-7.5-6.945-12.311-15.623-12.311-13.206,0-19.059,9.9-19.059,22.289,0,13.006,5.578,22.708,19.4,22.708,5.573,0,11.01-1.789,14.036-3.86l.559-7.5a25.655,25.655,0,0,1-12.6,4c-8.056,0-11.209-6.269-11.209-15.9C228.609,80.759,231.426,74.843,237.133,74.843ZM404.6,93.077h13.332V86.406H404.6V75.049H421.83V68.3H395.046v43.558h22.818c3.548,0,5.453-2.022,5.974-6.813H404.6Zm74.979,6.962a5.85,5.85,0,1,0,5.853,5.849A5.849,5.849,0,0,0,479.581,100.039ZM375.3,72.231c-.647,1.448-9.568,22.217-9.568,22.217A24.414,24.414,0,0,0,364.1,99.84h-.073a26.068,26.068,0,0,0-1.826-5.392S352.828,74,352.013,72.207s-2.075-3.583-3.995-3.583h-6.462v43.238h7.991V83.52a25.1,25.1,0,0,0,1.778,5.869l10.181,22.473h4.572l9.773-22.538a31.163,31.163,0,0,0,1.842-5.744v28.282h8.055V68.624H379.19C377.122,68.624,375.962,70.782,375.3,72.231Zm86.127-.416c-3.849-2.549-9.091-3.51-16.1-3.51H427.148l-.016,6.744h18.38v0c3.9.022,6.871.637,8.893,2.13,2.961,2.2,4.133,6.188,4.133,12.59s-.955,10.946-4.326,13.353a14.072,14.072,0,0,1-7.991,2h-4.4V87c0-8.332-9.571-9.063-9.571-9.063v33.927h13.352a33.363,33.363,0,0,0,12.382-2c6.883-2.816,10.732-8.881,10.732-19.611C468.72,80.967,466.39,75.117,461.432,71.815Z" transform="translate(-167.739 -67.554)" fill="#b7e438"/>
</svg>
