<svg xmlns="http://www.w3.org/2000/svg" width="204.721" height="104.877" viewBox="0 0 204.721 104.877">
  <g id="pric1" transform="translate(-1498.992 -1449.111)">
    <path id="Path_28" data-name="Path 28" d="M1501.492,1551.472a99.861,99.861,0,1,1,199.721,0" fill="none" stroke="#c8ec48" stroke-linecap="round" stroke-miterlimit="10" stroke-width="5" stroke-dasharray="12"/>
    <path id="Path_29" data-name="Path 29" d="M1665.749,1478.517a1.833,1.833,0,0,0-2.58.277l-1.154,1.434-2.854-2.307c1.448-1.8,2.3-2.861,2.3-2.861a7.338,7.338,0,0,0-11.429-9.205s-5.571,6.912-12.677,15.736v-20.176a9.2,9.2,0,0,0-9.2-9.2h-40.934a10.578,10.578,0,0,0-7.49,3.1l-20.148,20.147a7.5,7.5,0,0,0-2.193,5.3v64.028a9.2,9.2,0,0,0,9.2,9.2h61.565a9.2,9.2,0,0,0,9.2-9.2v-39.8c7.185-8.917,14.8-18.373,19.506-24.216l2.833,2.336-17.238,21.4a1.833,1.833,0,1,0,2.854,2.3l20.716-25.72A1.829,1.829,0,0,0,1665.749,1478.517Zm-82.916-21.163v14.738a5.573,5.573,0,0,1-5.566,5.566H1562.53Zm34.336,66.846c-5.389,6.691-10.351,9.009-11.984,9.03-.327-1.6.877-6.943,6.269-13.63l20.719-25.728,5.711,4.608Zm23.019-28.581-5.712-4.6,18.413-22.86a3.668,3.668,0,1,1,5.715,4.6Zm-42.816-27.048a1.817,1.817,0,0,1,1.818-1.818H1621a1.817,1.817,0,0,1,0,3.635H1599.19A1.817,1.817,0,0,1,1597.372,1468.571Zm-25.443,25.443a1.816,1.816,0,0,1,1.817-1.817H1621a1.818,1.818,0,0,1,0,3.635h-47.253A1.817,1.817,0,0,1,1571.929,1494.014Zm0,14.658a1.667,1.667,0,0,1,1.459-1.818h37.937a1.862,1.862,0,0,1,0,3.635h-37.937A1.667,1.667,0,0,1,1571.929,1508.672Zm0,14.657c0-1,.53-1.817,1.186-1.817h30.835c.655,0,1.186.813,1.186,1.817s-.531,1.818-1.186,1.818h-30.835C1572.459,1525.147,1571.929,1524.334,1571.929,1523.329Zm0,14.658c0-1.005.376-1.818.84-1.818h21.857c.464,0,.84.813.84,1.818s-.376,1.817-.84,1.817h-21.857C1572.305,1539.8,1571.929,1538.991,1571.929,1537.987Z" fill="#333"/>
  </g>
</svg>
