<svg xmlns="http://www.w3.org/2000/svg" width="204.721" height="108.549" viewBox="0 0 204.721 108.549">
  <g id="rcm1" transform="translate(-222.873 -1445.423)">
    <path id="Path_22" data-name="Path 22" d="M225.373,1551.472a99.86,99.86,0,1,1,199.721,0" fill="none" stroke="#c8ec48" stroke-linecap="round" stroke-miterlimit="10" stroke-width="5" stroke-dasharray="12"/>
    <path id="Rectangle_25" data-name="Rectangle 25" d="M5.839,0H7.954a5.839,5.839,0,0,1,5.839,5.839V16.091a0,0,0,0,1,0,0H0a0,0,0,0,1,0,0V5.839A5.839,5.839,0,0,1,5.839,0Z" transform="translate(263.832 1534.971)" fill="#333"/>
    <path id="Rectangle_26" data-name="Rectangle 26" d="M5.839,0H7.953a5.839,5.839,0,0,1,5.839,5.839V33.774a0,0,0,0,1,0,0H0a0,0,0,0,1,0,0V5.839A5.839,5.839,0,0,1,5.839,0Z" transform="translate(283.86 1517.288)" fill="#333"/>
    <path id="Rectangle_27" data-name="Rectangle 27" d="M5.839,0H7.953a5.839,5.839,0,0,1,5.839,5.839V51.457a0,0,0,0,1,0,0H0a0,0,0,0,1,0,0V5.839A5.839,5.839,0,0,1,5.839,0Z" transform="translate(303.887 1499.606)" fill="#333"/>
    <path id="Path_23" data-name="Path 23" d="M331,1525.392a29.874,29.874,0,0,1,6.709-18.9V1484.15a2.228,2.228,0,0,0-2.228-2.227h-9.338a2.227,2.227,0,0,0-2.227,2.227v66.912h13.793v-6.771a29.88,29.88,0,0,1-6.709-18.9Z" fill="#333"/>
    <path id="Path_24" data-name="Path 24" d="M365.939,1464.2l-13.314-17.885a2.228,2.228,0,0,0-3.573,0L335.739,1464.2a2.227,2.227,0,0,0,1.787,3.557h6.417v32.963a29.889,29.889,0,0,1,13.792-5.126v-27.837h6.417A2.227,2.227,0,0,0,365.939,1464.2Z" fill="#333"/>
    <g id="Group_43" data-name="Group 43">
      <path id="Path_25" data-name="Path 25" d="M355.276,1517.875c0,1.685.931,2.67,4.207,3.527v-7.016C356.13,1514.633,355.276,1516.338,355.276,1517.875Z" fill="#333"/>
      <path id="Path_26" data-name="Path 26" d="M362.873,1527.842v7.775c2.837-.275,4.38-1.584,4.38-3.718C367.253,1530.123,366.6,1528.922,362.873,1527.842Z" fill="#333"/>
      <path id="Path_27" data-name="Path 27" d="M360.965,1499.722a25.9,25.9,0,0,0-3.23.2,25.673,25.673,0,0,0,0,50.937,26.066,26.066,0,0,0,3.23.2,25.67,25.67,0,1,0,0-51.34Zm1.908,40.137v3.916h-3.39v-3.922c-6.318-.516-9.914-3.949-10.655-8.6h5.586a5.763,5.763,0,0,0,5.069,4.247v-8.455c-7.56-1.617-9.774-4.423-9.774-8.626,0-3.778,2.854-7.783,9.774-8.222v-3.189h3.39v3.252c6.666.673,9.136,4.546,9.473,7.716H366.8c-.386-1.5-1.317-2.881-3.923-3.4v7.553c8.535,1.8,10.228,5.272,10.228,8.993C373.1,1535.75,369.713,1539.353,362.873,1539.859Z" fill="#333"/>
    </g>
  </g>
</svg>
