<svg xmlns="http://www.w3.org/2000/svg" width="204.721" height="108.549" viewBox="0 0 204.721 108.549">
  <g id="tech1" transform="translate(-1070 -1445.423)">
    <path id="Path_21" data-name="Path 21" d="M1072.5,1551.472c0-25.7,25.868-67.063,25.868-67.063s44.541-32.8,73.992-32.8a99.861,99.861,0,0,1,99.861,99.861" fill="none" stroke="#c8ec48" stroke-linecap="round" stroke-miterlimit="10" stroke-width="5" stroke-dasharray="12"/>
    <g id="Group_59" data-name="Group 59">
      <path id="Path_34" data-name="Path 34" d="M1199.136,1455.449v7.322h-53.483v-7.322a8.056,8.056,0,0,1,8.065-8.05h37.369A8.052,8.052,0,0,1,1199.136,1455.449Z" fill="#343433"/>
      <path id="Path_35" data-name="Path 35" d="M1199.136,1534.124v7.322a8.051,8.051,0,0,1-8.049,8.049h-37.369a8.055,8.055,0,0,1-8.065-8.049v-7.322Z" fill="#343433"/>
      <g id="Group_45" data-name="Group 45">
        <path id="Path_36" data-name="Path 36" d="M1201.113,1464.747h-57.437v-9.3a10.045,10.045,0,0,1,10.042-10.026h37.369a10.037,10.037,0,0,1,10.026,10.026Zm-53.483-3.953h49.529v-5.345a6.079,6.079,0,0,0-6.072-6.073h-37.369a6.087,6.087,0,0,0-6.088,6.073Z" fill="#343433"/>
      </g>
      <g id="Group_46" data-name="Group 46">
        <path id="Path_37" data-name="Path 37" d="M1191.087,1551.472h-37.369a10.046,10.046,0,0,1-10.042-10.026v-9.3h57.437v9.3A10.037,10.037,0,0,1,1191.087,1551.472ZM1147.63,1536.1v5.345a6.087,6.087,0,0,0,6.088,6.072h37.369a6.078,6.078,0,0,0,6.072-6.072V1536.1Z" fill="#343433"/>
      </g>
      <g id="Group_47" data-name="Group 47">
        <path id="Path_38" data-name="Path 38" d="M1201.113,1536.1h-57.437v-75.307h57.437Zm-53.483-3.954h49.529v-67.4H1147.63Z" fill="#343433"/>
      </g>
      <circle id="Ellipse_12" data-name="Ellipse 12" cx="14.325" cy="14.325" r="14.325" transform="translate(1158.075 1484.119)" fill="#f4f4f4"/>
      <g id="Group_48" data-name="Group 48">
        <path id="Path_39" data-name="Path 39" d="M1172.4,1514.745a16.3,16.3,0,1,1,16.3-16.3A16.32,16.32,0,0,1,1172.4,1514.745Zm0-28.649a12.348,12.348,0,1,0,12.348,12.348A12.362,12.362,0,0,0,1172.4,1486.1Z" fill="#343433"/>
      </g>
      <g id="Group_49" data-name="Group 49">
        <path id="Path_40" data-name="Path 40" d="M1229.149,1471.089h-30.005a1.977,1.977,0,1,1,0-3.954h30.005a1.914,1.914,0,0,0,1.527-.766l5.764-7.719a1.977,1.977,0,0,1,3.168,2.366l-5.764,7.719A5.887,5.887,0,0,1,1229.149,1471.089Z" fill="#343433"/>
      </g>
      <g id="Group_50" data-name="Group 50">
        <path id="Path_41" data-name="Path 41" d="M1238.026,1537.235a1.975,1.975,0,0,1-1.586-.794l-5.764-7.719a1.915,1.915,0,0,0-1.527-.765h-30.005a1.977,1.977,0,1,1,0-3.954h30.005a5.887,5.887,0,0,1,4.695,2.354l5.764,7.718a1.977,1.977,0,0,1-1.582,3.16Z" fill="#343433"/>
      </g>
      <g id="Group_51" data-name="Group 51">
        <path id="Path_42" data-name="Path 42" d="M1225.824,1485.306h-26.68a1.977,1.977,0,1,1,0-3.954h26.68a1.977,1.977,0,1,1,0,3.954Z" fill="#343433"/>
      </g>
      <g id="Group_52" data-name="Group 52">
        <path id="Path_43" data-name="Path 43" d="M1225.824,1513.74h-26.68a1.977,1.977,0,1,1,0-3.954h26.68a1.977,1.977,0,1,1,0,3.954Z" fill="#343433"/>
      </g>
      <g id="Group_53" data-name="Group 53">
        <path id="Path_44" data-name="Path 44" d="M1238.024,1499.522h-38.88a1.977,1.977,0,1,1,0-3.953h38.88a1.977,1.977,0,1,1,0,3.953Z" fill="#343433"/>
      </g>
      <circle id="Ellipse_13" data-name="Ellipse 13" cx="3.617" cy="3.617" r="3.617" transform="translate(1223.667 1479.712)" fill="#343433"/>
      <path id="Path_45" data-name="Path 45" d="M1243.094,1457.773a3.617,3.617,0,1,0-3.617,3.617A3.616,3.616,0,0,0,1243.094,1457.773Z" fill="#343433"/>
      <circle id="Ellipse_14" data-name="Ellipse 14" cx="3.617" cy="3.617" r="3.617" transform="translate(1235.861 1493.929)" fill="#343433"/>
      <circle id="Ellipse_15" data-name="Ellipse 15" cx="3.617" cy="3.617" r="3.617" transform="translate(1235.548 1533.701)" fill="#343433"/>
      <path id="Path_46" data-name="Path 46" d="M1230.067,1511.763a3.617,3.617,0,1,0-3.617,3.617A3.617,3.617,0,0,0,1230.067,1511.763Z" fill="#343433"/>
      <g id="Group_54" data-name="Group 54">
        <path id="Path_47" data-name="Path 47" d="M1145.577,1471.089h-30.005a5.889,5.889,0,0,1-4.7-2.355l-5.763-7.718a1.977,1.977,0,1,1,3.167-2.366l5.765,7.719a1.913,1.913,0,0,0,1.527.766h30.005a1.977,1.977,0,0,1,0,3.954Z" fill="#343433"/>
      </g>
      <g id="Group_55" data-name="Group 55">
        <path id="Path_48" data-name="Path 48" d="M1106.695,1537.235a1.977,1.977,0,0,1-1.582-3.16l5.764-7.718a5.884,5.884,0,0,1,4.7-2.354h30.005a1.977,1.977,0,0,1,0,3.954h-30.005a1.914,1.914,0,0,0-1.527.765l-5.765,7.719A1.971,1.971,0,0,1,1106.695,1537.235Z" fill="#343433"/>
      </g>
      <g id="Group_56" data-name="Group 56">
        <path id="Path_49" data-name="Path 49" d="M1145.577,1485.306H1118.9a1.977,1.977,0,1,1,0-3.954h26.681a1.977,1.977,0,0,1,0,3.954Z" fill="#343433"/>
      </g>
      <g id="Group_57" data-name="Group 57">
        <path id="Path_50" data-name="Path 50" d="M1145.577,1513.74H1118.9a1.977,1.977,0,1,1,0-3.954h26.681a1.977,1.977,0,0,1,0,3.954Z" fill="#343433"/>
      </g>
      <g id="Group_58" data-name="Group 58">
        <path id="Path_51" data-name="Path 51" d="M1145.577,1499.522H1106.7a1.977,1.977,0,1,1,0-3.953h38.88a1.977,1.977,0,1,1,0,3.953Z" fill="#343433"/>
      </g>
      <path id="Path_52" data-name="Path 52" d="M1113.82,1483.329a3.617,3.617,0,1,1,3.617,3.617A3.617,3.617,0,0,1,1113.82,1483.329Z" fill="#343433"/>
      <path id="Path_53" data-name="Path 53" d="M1101.627,1457.773a3.617,3.617,0,1,1,3.616,3.617A3.616,3.616,0,0,1,1101.627,1457.773Z" fill="#343433"/>
      <circle id="Ellipse_16" data-name="Ellipse 16" cx="3.617" cy="3.617" r="3.617" transform="translate(1101.627 1493.929)" fill="#343433"/>
      <circle id="Ellipse_17" data-name="Ellipse 17" cx="3.617" cy="3.617" r="3.617" transform="translate(1101.939 1533.701)" fill="#343433"/>
      <path id="Path_54" data-name="Path 54" d="M1114.654,1511.763a3.617,3.617,0,1,1,3.617,3.617A3.617,3.617,0,0,1,1114.654,1511.763Z" fill="#343433"/>
    </g>
  </g>
</svg>
