<svg xmlns="http://www.w3.org/2000/svg" width="22.749" height="18.724" viewBox="0 0 22.749 18.724">
  <path id="TWITTER" d="M1721.611,5150.942a9.44,9.44,0,0,1-2.3.656c.37-.063.914-.732,1.131-1a4.219,4.219,0,0,0,.764-1.393c.02-.039.035-.089-.005-.119a.131.131,0,0,0-.122.01,11.77,11.77,0,0,1-2.728,1.044.184.184,0,0,1-.188-.05,2.242,2.242,0,0,0-.238-.244,4.836,4.836,0,0,0-1.322-.81,4.6,4.6,0,0,0-2.026-.326,4.834,4.834,0,0,0-1.923.543,4.95,4.95,0,0,0-1.551,1.267,4.751,4.751,0,0,0-.926,1.855,5.009,5.009,0,0,0-.049,1.959c.015.109.005.124-.094.109a14.564,14.564,0,0,1-9.373-4.771c-.11-.124-.169-.124-.259.01a4.753,4.753,0,0,0,.81,5.616,7.646,7.646,0,0,0,.577.506,4.765,4.765,0,0,1-1.809-.506c-.109-.07-.164-.03-.174.094a2.835,2.835,0,0,0,.03.537,4.8,4.8,0,0,0,2.962,3.831,2.71,2.71,0,0,0,.6.184,5.341,5.341,0,0,1-1.774.055c-.129-.025-.179.04-.129.164a4.989,4.989,0,0,0,3.727,3.121c.168.03.338.03.507.069-.01.016-.02.016-.03.03a5.9,5.9,0,0,1-2.545,1.349,9.108,9.108,0,0,1-3.866.5c-.208-.03-.252-.028-.308,0s-.007.085.06.139c.263.174.531.328.8.477a12.766,12.766,0,0,0,2.584,1.034,13.767,13.767,0,0,0,13.362-3.124c2.738-2.721,3.7-6.473,3.7-10.229,0-.147.174-.229.277-.306a9.056,9.056,0,0,0,1.819-1.891.578.578,0,0,0,.12-.363v-.019C1721.7,5150.882,1721.7,5150.9,1721.611,5150.942Z" transform="translate(-1698.955 -5148.697)" fill="#fff"/>
</svg>
