<svg xmlns="http://www.w3.org/2000/svg" width="44.337" height="44.68" viewBox="0 0 44.337 44.68">
  <g id="whatsupICON" transform="translate(-1259.483 -2713.485)">
    <g id="Group_91" data-name="Group 91">
      <g id="Group_90" data-name="Group 90">
        <path id="Path_16" data-name="Path 16" d="M1282.052,2753.369a18,18,0,0,1-9.966-3l-6.963,2.229,2.263-6.728a18.112,18.112,0,1,1,14.666,7.5Zm0-39.884a21.767,21.767,0,0,0-18.639,33l-3.93,11.677,12.05-3.857a21.767,21.767,0,1,0,10.519-40.823Z" fill="#5d786f" fill-rule="evenodd"/>
      </g>
      <path id="Path_17" data-name="Path 17" d="M1292.258,2740.2c-.545-.3-3.225-1.745-3.727-1.949s-.87-.311-1.262.232-1.5,1.752-1.839,2.11-.664.394-1.211.094a15.219,15.219,0,0,1-4.364-2.925,16.743,16.743,0,0,1-2.946-3.962c-.305-.569,0-.858.286-1.125.26-.24.581-.629.871-.942a3.82,3.82,0,0,0,.589-.906,1.021,1.021,0,0,0-.01-.974c-.129-.283-1.137-3.059-1.558-4.188s-.891-.962-1.215-.974-.693-.072-1.062-.086a2.041,2.041,0,0,0-1.508.639,6.229,6.229,0,0,0-2.119,4.561c-.1,2.733,1.789,5.45,2.054,5.829s3.611,6.308,9.174,8.744,5.595,1.694,6.615,1.64,3.338-1.223,3.85-2.5a4.643,4.643,0,0,0,.423-2.629c-.13-.236-.5-.39-1.041-.688Z" fill="#5d786f" fill-rule="evenodd"/>
    </g>
  </g>
</svg>
