<svg xmlns="http://www.w3.org/2000/svg" width="14.442" height="19.873" viewBox="0 0 14.442 19.873">
  <g id="writerName" transform="translate(-296.422 -1166.14)">
    <g id="Group_14" data-name="Group 14">
      <path id="Path_13" data-name="Path 13" d="M298.141,1166.14h8.276a.716.716,0,0,1,.523.217l3.707,3.707a.716.716,0,0,1,.217.523v13.707a1.722,1.722,0,0,1-1.72,1.719h-11a1.721,1.721,0,0,1-1.719-1.719V1167.86a1.722,1.722,0,0,1,1.719-1.72Zm11.751,5.1H307.27a1.237,1.237,0,0,1-1.234-1.234v-2.89h-7.9a.749.749,0,0,0-.748.748v16.434a.751.751,0,0,0,.748.748h11a.751.751,0,0,0,.748-.748v-13.058Z" fill="#b2b2b2"/>
      <path id="Path_14" data-name="Path 14" d="M299.908,1173.567a.394.394,0,1,1,0-.788h4.622a.394.394,0,1,1,0,.788Z" fill="#b2b2b2"/>
      <path id="Path_15" data-name="Path 15" d="M299.908,1175.821a.393.393,0,1,1,0-.787h7.47a.393.393,0,0,1,0,.787Z" fill="#b2b2b2"/>
      <path id="Path_16" data-name="Path 16" d="M299.908,1178.076a.394.394,0,0,1,0-.788h7.47a.394.394,0,0,1,0,.788Z" fill="#b2b2b2"/>
      <path id="Path_17" data-name="Path 17" d="M299.908,1180.33a.393.393,0,1,1,0-.787h7.47a.393.393,0,0,1,0,.787Z" fill="#b2b2b2"/>
      <path id="Path_18" data-name="Path 18" d="M299.908,1182.585a.394.394,0,1,1,0-.788h7.47a.394.394,0,0,1,0,.788Z" fill="#b2b2b2"/>
    </g>
  </g>
</svg>
