<svg xmlns="http://www.w3.org/2000/svg" width="63.505" height="63.538" viewBox="0 0 63.505 63.538">
  <g id="Group_208" data-name="Group 208" transform="translate(-1513.743 -3091.774)">
    <path id="Path_2699" data-name="Path 2699" d="M1576.087,3148.55l-8.436-8.436a3.951,3.951,0,0,0-4.42-.8l-2.871-2.871.682-.682a1.286,1.286,0,0,0,0-1.818l-1.976-1.976a25.149,25.149,0,1,0-5.172,5.16l1.982,1.982a1.286,1.286,0,0,0,1.818,0l.661-.661,2.877,2.878a3.954,3.954,0,0,0,.817,4.392l8.436,8.436a3.961,3.961,0,0,0,5.6,0h0A3.961,3.961,0,0,0,1576.087,3148.55Zm-51.712-17.1a20.527,20.527,0,1,1,29.028,0A20.55,20.55,0,0,1,1524.375,3131.446Z" fill="#f4f4f4"/>
    <g id="Group_207" data-name="Group 207">
      <path id="Path_2700" data-name="Path 2700" d="M1527.216,3119a1.784,1.784,0,0,0,1.615-2.565l.005,0,4.787-4.786,0-.005a1.8,1.8,0,0,0,.77.18,1.777,1.777,0,0,0,1.243-.505l4.163,2.082a1.972,1.972,0,0,0-.021.218,1.8,1.8,0,1,0,3.405-.78c.017-.017.039-.024.055-.043l4.749-5.938a1.762,1.762,0,0,0,.766.179,1.8,1.8,0,0,0,1.27-3.064,1.837,1.837,0,0,0-2.539,0,1.77,1.77,0,0,0-.341,2.047c-.017.017-.038.026-.054.045l-4.755,5.943a1.839,1.839,0,0,0-2,.321l-4.164-2.083a1.985,1.985,0,0,0,.021-.217,1.784,1.784,0,0,0-.526-1.269,1.836,1.836,0,0,0-2.538,0,1.773,1.773,0,0,0-.346,2.039l0,0-4.787,4.787-.008.012a1.838,1.838,0,0,0-2.035.339,1.8,1.8,0,0,0,1.269,3.064Z" fill="#f4f4f4"/>
      <g id="Group_206" data-name="Group 206">
        <rect id="Rectangle_367" data-name="Rectangle 367" width="4.753" height="17.232" transform="translate(1546.431 3110.393)" fill="#f4f4f4"/>
        <rect id="Rectangle_368" data-name="Rectangle 368" width="4.753" height="9.851" transform="translate(1539.217 3117.774)" fill="#f4f4f4"/>
        <rect id="Rectangle_369" data-name="Rectangle 369" width="4.753" height="12.484" transform="translate(1532.003 3115.141)" fill="#f4f4f4"/>
        <rect id="Rectangle_370" data-name="Rectangle 370" width="4.753" height="6.993" transform="translate(1524.79 3120.631)" fill="#f4f4f4"/>
      </g>
    </g>
  </g>
</svg>
