<svg xmlns="http://www.w3.org/2000/svg" width="57.646" height="56.929" viewBox="0 0 57.646 56.929">
  <g id="Group_212" data-name="Group 212" transform="translate(-1125.783 -3089.185)">
    <path id="Path_2701" data-name="Path 2701" d="M1180.56,3139.136a2.281,2.281,0,0,1-2.282-2.282V3094.76a1.012,1.012,0,0,0-1.011-1.01h-19.172a1.012,1.012,0,0,0-1.011,1.01v42.094a2.282,2.282,0,0,1-4.564,0V3094.76a5.581,5.581,0,0,1,5.575-5.575h19.172a5.582,5.582,0,0,1,5.576,5.575v42.094A2.282,2.282,0,0,1,1180.56,3139.136Z" fill="#f4f4f4"/>
    <path id="Path_2702" data-name="Path 2702" d="M1128.651,3139.139a2.282,2.282,0,0,1-2.282-2.282v-27.626a5.58,5.58,0,0,1,5.578-5.57H1147.3a2.283,2.283,0,0,1,0,4.565h-15.356a1.011,1.011,0,0,0-1.014,1v27.626A2.282,2.282,0,0,1,1128.651,3139.139Z" fill="#f4f4f4"/>
    <path id="Path_2703" data-name="Path 2703" d="M1181.147,3146.114h-53.081a2.282,2.282,0,1,1,0-4.565h53.081a2.282,2.282,0,0,1,0,4.565Z" fill="#f4f4f4"/>
    <g id="Group_210" data-name="Group 210">
      <path id="Path_2704" data-name="Path 2704" d="M1164.094,3101.9h-1.434a2.282,2.282,0,1,1,0-4.565h1.434a2.282,2.282,0,1,1,0,4.565Z" fill="#f4f4f4"/>
      <path id="Path_2705" data-name="Path 2705" d="M1172.7,3101.9h-1.434a2.282,2.282,0,1,1,0-4.565h1.434a2.282,2.282,0,1,1,0,4.565Z" fill="#f4f4f4"/>
      <path id="Path_2706" data-name="Path 2706" d="M1164.094,3109.335h-1.434a2.282,2.282,0,1,1,0-4.565h1.434a2.282,2.282,0,1,1,0,4.565Z" fill="#f4f4f4"/>
      <path id="Path_2707" data-name="Path 2707" d="M1172.7,3109.335h-1.434a2.282,2.282,0,1,1,0-4.565h1.434a2.282,2.282,0,1,1,0,4.565Z" fill="#f4f4f4"/>
      <path id="Path_2708" data-name="Path 2708" d="M1164.094,3116.769h-1.434a2.282,2.282,0,1,1,0-4.565h1.434a2.282,2.282,0,1,1,0,4.565Z" fill="#f4f4f4"/>
      <path id="Path_2709" data-name="Path 2709" d="M1172.7,3116.769h-1.434a2.282,2.282,0,1,1,0-4.565h1.434a2.282,2.282,0,1,1,0,4.565Z" fill="#f4f4f4"/>
      <path id="Path_2710" data-name="Path 2710" d="M1164.094,3124.2h-1.434a2.282,2.282,0,1,1,0-4.565h1.434a2.282,2.282,0,1,1,0,4.565Z" fill="#f4f4f4"/>
      <path id="Path_2711" data-name="Path 2711" d="M1172.7,3124.2h-1.434a2.282,2.282,0,1,1,0-4.565h1.434a2.282,2.282,0,1,1,0,4.565Z" fill="#f4f4f4"/>
      <path id="Path_2712" data-name="Path 2712" d="M1164.094,3131.637h-1.434a2.282,2.282,0,1,1,0-4.565h1.434a2.282,2.282,0,1,1,0,4.565Z" fill="#f4f4f4"/>
      <path id="Path_2713" data-name="Path 2713" d="M1172.7,3131.637h-1.434a2.282,2.282,0,1,1,0-4.565h1.434a2.282,2.282,0,1,1,0,4.565Z" fill="#f4f4f4"/>
    </g>
    <g id="Group_211" data-name="Group 211">
      <path id="Path_2714" data-name="Path 2714" d="M1137.652,3116.769h-1.435a2.282,2.282,0,1,1,0-4.565h1.435a2.282,2.282,0,0,1,0,4.565Z" fill="#f4f4f4"/>
      <path id="Path_2715" data-name="Path 2715" d="M1146.259,3116.769h-1.434a2.282,2.282,0,1,1,0-4.565h1.434a2.282,2.282,0,0,1,0,4.565Z" fill="#f4f4f4"/>
      <path id="Path_2716" data-name="Path 2716" d="M1137.652,3124.2h-1.435a2.282,2.282,0,1,1,0-4.565h1.435a2.282,2.282,0,0,1,0,4.565Z" fill="#f4f4f4"/>
      <path id="Path_2717" data-name="Path 2717" d="M1146.259,3124.2h-1.434a2.282,2.282,0,1,1,0-4.565h1.434a2.282,2.282,0,0,1,0,4.565Z" fill="#f4f4f4"/>
      <path id="Path_2718" data-name="Path 2718" d="M1137.652,3131.637h-1.435a2.282,2.282,0,1,1,0-4.565h1.435a2.282,2.282,0,0,1,0,4.565Z" fill="#f4f4f4"/>
      <path id="Path_2719" data-name="Path 2719" d="M1146.259,3131.637h-1.434a2.282,2.282,0,1,1,0-4.565h1.434a2.282,2.282,0,0,1,0,4.565Z" fill="#f4f4f4"/>
    </g>
  </g>
</svg>
