<svg xmlns="http://www.w3.org/2000/svg" width="62.672" height="59.015" viewBox="0 0 62.672 59.015">
  <g id="Group_204" data-name="Group 204" transform="translate(-737.648 -3090.891)">
    <g id="Group_200" data-name="Group 200">
      <path id="Path_2696" data-name="Path 2696" d="M748.565,3112.961a7.989,7.989,0,0,1,5.54-7.015,13.134,13.134,0,0,1,4.465-.779,13.314,13.314,0,0,1,4.487.772,7.985,7.985,0,0,1,5.539,7.022,6.974,6.974,0,0,1,.021,1.011v.323a20.311,20.311,0,0,1-2.1,8.629,12.577,12.577,0,0,1-2.963,3.812,7.092,7.092,0,0,1-4.774,1.868l-.253-.007a.026.026,0,0,1-.021.007,7.176,7.176,0,0,1-4.894-1.868,12.5,12.5,0,0,1-2.956-3.805,20.261,20.261,0,0,1-2.106-8.622v-.337A8.112,8.112,0,0,1,748.565,3112.961Z" fill="#f4f4f4"/>
    </g>
    <g id="Group_201" data-name="Group 201">
      <path id="Path_2697" data-name="Path 2697" d="M779.514,3145.16a6.526,6.526,0,0,1-.456,1.944,4.377,4.377,0,0,1-3.981,2.8H742.1a4.391,4.391,0,0,1-4-2.823,6.493,6.493,0,0,1-.429-1.741l-.014-5.427a5.089,5.089,0,0,1,2.24-4.185,9.128,9.128,0,0,1,2.6-1.327l6.93-2.612,2.141-.533.569.1a3.58,3.58,0,0,1,1.671,1.151c.112.141.2.267.3.394q1.969,2.79,3.96,5.567l.526.738,3.841-5.393c.077-.112.147-.224.217-.337a5.411,5.411,0,0,1,.864-1.116l.281-.225a4.217,4.217,0,0,1,4.206-.267c.007,0,6.74,2.556,6.74,2.556a9.064,9.064,0,0,1,2.542,1.306,5.1,5.1,0,0,1,2.232,4.325Z" fill="#f4f4f4"/>
    </g>
    <g id="Group_203" data-name="Group 203">
      <g id="Group_202" data-name="Group 202">
        <path id="Path_2698" data-name="Path 2698" d="M794.943,3090.891H766a5.384,5.384,0,0,0-5.377,5.376v5.284a17.187,17.187,0,0,1,3.1.637v-3.306h33.507v15.185a2.282,2.282,0,0,1-2.28,2.279h-4.372a1.556,1.556,0,0,0-1.087.444l-8.239,8.115v-7.01a1.55,1.55,0,0,0-1.549-1.549h-8.073a25.791,25.791,0,0,1-.594,3.1h7.119v9.161a1.545,1.545,0,0,0,.95,1.427,1.512,1.512,0,0,0,.6.122,1.555,1.555,0,0,0,1.087-.444l10.423-10.266h3.737a5.384,5.384,0,0,0,5.377-5.376v-17.8A5.384,5.384,0,0,0,794.943,3090.891Zm-29.391,5.866a1.837,1.837,0,0,1,0-3.673,1.922,1.922,0,0,1,1.837,1.838A1.87,1.87,0,0,1,765.552,3096.757Zm7.555,0a1.785,1.785,0,0,1-1.766-1.907,1.858,1.858,0,0,1,1.766-1.835,1.779,1.779,0,0,1,1.835,1.835A1.883,1.883,0,0,1,773.107,3096.757Zm7.485,0a1.837,1.837,0,1,1,0-3.673,1.919,1.919,0,0,1,1.835,1.838A1.868,1.868,0,0,1,780.592,3096.757Z" fill="#f4f4f4"/>
      </g>
    </g>
  </g>
</svg>
