<svg xmlns="http://www.w3.org/2000/svg" width="63.963" height="55.024" viewBox="0 0 63.963 55.024">
  <g id="Group_199" data-name="Group 199" transform="translate(-342.447 -3096.031)">
    <path id="Rectangle_364" data-name="Rectangle 364" d="M3.592,0h0A3.592,3.592,0,0,1,7.184,3.592V8.381a0,0,0,0,1,0,0H0a0,0,0,0,1,0,0V3.592A3.592,3.592,0,0,1,3.592,0Z" transform="translate(342.447 3142.673)" fill="white"/>
    <path id="Rectangle_365" data-name="Rectangle 365" d="M3.592,0h0A3.592,3.592,0,0,1,7.184,3.592v14a0,0,0,0,1,0,0H0a0,0,0,0,1,0,0v-14A3.592,3.592,0,0,1,3.592,0Z" transform="translate(352.878 3133.463)" fill="white"/>
    <path id="Rectangle_366" data-name="Rectangle 366" d="M3.592,0h0A3.592,3.592,0,0,1,7.184,3.592V26.8a0,0,0,0,1,0,0H0a0,0,0,0,1,0,0V3.592A3.592,3.592,0,0,1,3.592,0Z" transform="translate(363.31 3124.253)" fill="white"/>
    <path id="Path_2691" data-name="Path 2691" d="M377.432,3137.684a15.55,15.55,0,0,1,3.494-9.843V3116.2a1.16,1.16,0,0,0-1.16-1.16H374.9a1.16,1.16,0,0,0-1.16,1.16v34.852h7.184v-3.527a15.558,15.558,0,0,1-3.494-9.844Z" fill="white"/>
    <path id="Path_2692" data-name="Path 2692" d="M395.63,3105.814,388.7,3096.5a1.16,1.16,0,0,0-1.861,0l-6.934,9.316a1.16,1.16,0,0,0,.93,1.853h3.342v17.169a15.566,15.566,0,0,1,7.184-2.67v-14.5H394.7A1.16,1.16,0,0,0,395.63,3105.814Z" fill="white"/>
    <path id="Path_2693" data-name="Path 2693" d="M390.077,3133.769c0,.877.484,1.39,2.191,1.837v-3.654C390.521,3132.08,390.077,3132.968,390.077,3133.769Z" fill="white"/>
    <path id="Path_2694" data-name="Path 2694" d="M394.033,3138.96v4.05c1.478-.144,2.282-.825,2.282-1.937C396.315,3140.148,395.974,3139.522,394.033,3138.96Z" fill="white"/>
    <path id="Path_2695" data-name="Path 2695" d="M393.039,3124.314a13.371,13.371,0,0,0-1.682,26.636,13.522,13.522,0,0,0,1.682.1,13.37,13.37,0,1,0,0-26.741Zm.994,20.905v2.04h-1.765v-2.043c-3.291-.268-5.164-2.057-5.55-4.478h2.909a3,3,0,0,0,2.641,2.212v-4.4c-3.938-.842-5.091-2.3-5.091-4.493,0-1.968,1.486-4.054,5.091-4.282v-1.662h1.765v1.694c3.472.351,4.759,2.368,4.935,4.019h-2.891a2.307,2.307,0,0,0-2.044-1.771v3.934c4.446.939,5.328,2.746,5.328,4.684C399.361,3143.079,397.6,3144.956,394.033,3145.219Z" fill="white"/>
  </g>
</svg>
